<svg width="167" height="60" fill="none" xmlns="http://www.w3.org/2000/svg"><path d="M75.778 56.756c4.06.21 6.809.314 8.246.314.341 0 .608-.09.8-.272.208-.196.312-.454.312-.775V54.14h-5.113c-1.556 0-2.69-.328-3.4-.984-.697-.67-1.046-1.737-1.046-3.202v-.628c0-1.465.349-2.525 1.045-3.181.712-.67 1.845-1.005 3.401-1.005h7.803v2.93h-6.914c-.889 0-1.333.419-1.333 1.256v.419c0 .837.444 1.255 1.333 1.255h4.002c1.452 0 2.519.321 3.2.963.682.642 1.023 1.647 1.023 3.014v1.046c0 1.368-.34 2.372-1.022 3.014-.682.642-1.75.963-3.201.963a72.65 72.65 0 01-2.401-.042l-2.045-.084a148.76 148.76 0 01-4.69-.293v-2.825zM100.25 45.14h4.002v10.674c0 1.465-.356 2.533-1.067 3.202-.697.656-1.823.984-3.38.984h-5.112c-1.556 0-2.69-.328-3.4-.984-.697-.67-1.045-1.737-1.045-3.202V45.14h4v10.674c0 .837.445 1.256 1.334 1.256h3.335c.889 0 1.333-.419 1.333-1.256V45.14zm5.782 0h9.336c1.556 0 2.682.335 3.379 1.005.711.656 1.067 1.716 1.067 3.181v1.884c0 1.158-.208 2.058-.623 2.7-.4.641-1.045 1.067-1.934 1.276l2.779 4.605h-4.335l-2.556-4.395h-3.112v4.395h-4.001V45.14zm9.78 4.186c0-.837-.444-1.256-1.333-1.256h-4.446v4.395h4.446c.889 0 1.333-.418 1.333-1.255v-1.884zm12.115 6.07l3.779-10.256h4.335l-5.891 14.65h-4.445l-5.891-14.65h4.335l3.778 10.256zm21.561 4.394h-12.337V45.14h12.337v2.93h-8.336v2.826h6.558v2.93h-6.558v3.035h8.336v2.93zm1-14.65h4.224l3.668 7.116 3.667-7.116h4.224l-5.891 10.78v3.872h-4.001V55.92l-5.891-10.779zm-38.478-5.127c4.06.209 6.809.314 8.246.314.341 0 .608-.091.801-.272.207-.196.311-.454.311-.775v-1.883h-5.113c-1.556 0-2.689-.328-3.401-.984-.696-.67-1.044-1.737-1.044-3.202v-.628c0-1.465.348-2.526 1.044-3.181.712-.67 1.845-1.005 3.401-1.005h7.803v2.93h-6.914c-.889 0-1.333.419-1.333 1.256V33c0 .838.444 1.256 1.333 1.256h4.002c1.452 0 2.519.321 3.2.963.682.642 1.023 1.646 1.023 3.014v1.046c0 1.368-.341 2.372-1.023 3.014-.681.642-1.748.963-3.2.963a72.64 72.64 0 01-2.401-.042l-2.045-.084a148.76 148.76 0 01-4.69-.293v-2.825zm-9.536-11.616l2.667 9.418 2.334-9.418h4.335l-4.224 14.65h-4.223l-2.667-9.104-2.668 9.105h-4.223L89.58 28.396h4.335l2.334 9.418 2.667-9.418h3.557zm-26.896 0h9.336c1.556 0 2.682.335 3.378 1.005.712.655 1.067 1.716 1.067 3.18v1.885c0 1.158-.207 2.058-.622 2.7-.4.641-1.045 1.067-1.934 1.276l2.779 4.605h-4.335l-2.556-4.396h-3.112v4.395h-4.001v-14.65zm9.78 4.186c0-.837-.444-1.256-1.334-1.256H79.58v4.395h4.445c.89 0 1.334-.418 1.334-1.255v-1.884zM24.451 59.795c2.456 0 4.446-1.874 4.446-4.185 0-2.312-1.99-4.186-4.445-4.186-2.456 0-4.446 1.874-4.446 4.186 0 2.311 1.99 4.185 4.445 4.185zm31.097 0c2.455 0 4.446-1.874 4.446-4.185 0-2.312-1.99-4.186-4.446-4.186-2.455 0-4.446 1.874-4.446 4.186 0 2.311 1.99 4.185 4.446 4.185zM66.153 32.29l.578-2.156c0-.083.022-.167.044-.23.267-.879 1.133-1.507 2.134-1.507l.444.042c1.023.189 1.779 1.046 1.779 2.051 0 .147-.023.293-.045.419l-.489 1.883-3.067 11.532a5.836 5.836 0 01-.267.817 6.487 6.487 0 01-.712 1.402 6.517 6.517 0 01-2.69 2.176c-.221.084-.422.168-.666.23a6.375 6.375 0 01-2.2.377h-41.59a6.38 6.38 0 01-1.29-.125c-.4-.063-.8-.188-1.178-.335a6.49 6.49 0 01-3.29-2.658c-.11-.188-.222-.377-.31-.565a5.007 5.007 0 01-.445-1.256c-.067-.23-.09-.481-.112-.712L9.226 20.277a2.32 2.32 0 00-.334-.754 2.488 2.488 0 00-.6-.565l-7.224-3.432A2.036 2.036 0 010 13.746c0-1.15 1-2.092 2.223-2.092.311 0 .6.063.867.167l8.891 4.186.378.188c.467.314.823.775.934 1.319l.044.272.378 2.47 2.623 17.224.578 3.851c.022.168.044.335.067.482.066.25.133.502.266.753v.021c.534 1.172 1.623 2.072 2.957 2.407.355.105.733.147 1.133.147h37.922c.356 0 .69-.042 1.023-.126 1.267-.272 2.334-1.067 2.912-2.114.133-.21.245-.44.311-.69l2.646-9.921z" fill="#010A43"/><path d="M42.525 29.695l-3.846 14.399h19.717c.422-.042.8-.147 1.178-.314 1.223-.502 2.179-1.528 2.512-2.784.111-.335.156-.69.156-1.046v-8.08l-19.717-2.176zm19.707-7.158a2.249 2.249 0 01-1.111.293H44.338l-.733 2.762 18.627 2.051v-5.106zm-42.685 2.227l.382-.957-.904-.944 20.134 2.227.6-2.26-20.862-.1-.002-.001c-.4 0-.777-.105-1.11-.293v.29h-.01.01V39.95c0 .44.066.858.2 1.235l.021.083c.534 1.486 1.934 2.617 3.623 2.826H34.1l3.956-14.902-19.922-2.2 1.413-2.228zm43.806-8.672v4.186c0 .774-.445 1.465-1.112 1.8a2.248 2.248 0 01-1.111.293H18.895c-.155 0-.31-.021-.444-.042a1.814 1.814 0 01-.667-.252 2.018 2.018 0 01-1.111-1.8v-4.185c0-.775.444-1.444 1.111-1.8a2.248 2.248 0 011.111-.293H61.13c.4 0 .778.104 1.111.293.667.356 1.112 1.025 1.112 1.8z" fill="#FF2E63"/><path d="M62.24 27.644v4.227l-19.716-2.197-3.845 14.42h-4.58l3.98-14.902-20.295-2.239v-4.228l21.383 2.365.6-2.26h4.58l-.734 2.763 18.628 2.05zm-7.085-24.41C52.932.094 48.264-.952 44.707 1.141c-1.556.837-3.334 2.72-4.668 4.605-1.333-1.884-3.112-3.768-4.668-4.605-3.556-2.093-8.224-1.256-10.447 2.093-2.223 3.349-1.334 7.744 2.223 9.837.222.209.444.209.667.418h24.451c.222-.209.445-.209.667-.418 3.334-2.093 4.446-6.488 2.223-9.837zM38.26 10.978v.21h-.222c-.223 0-.445.208-.667.208-.667.21-1.556.21-2.667 0-2.223-.209-4.446-.837-5.335-1.465-1.779-1.046-2.223-2.93-1.112-4.604 1.112-1.674 3.335-2.093 4.89-1.047.89.628 2.668 2.093 4.002 3.768.666.837.889 1.674 1.111 2.302v.628zm12.67-1.047c-1.111.419-3.112 1.256-5.335 1.465-1.111.21-2 .21-2.667 0-.222 0-.445-.209-.667-.209h-.222v-.837c.222-.628.444-1.465 1.111-2.302 1.334-1.675 2.89-3.14 3.78-3.768 1.555-1.046 3.778-.418 4.89 1.047 1.11 1.465.666 3.558-.89 4.604z" fill="#010A43"/></svg>