<svg width="167" height="60" viewBox="0 0 167 60" fill="none" xmlns="http://www.w3.org/2000/svg">
<path d="M75.7777 56.756C79.8381 56.9653 82.587 57.0699 84.0244 57.0699C84.3652 57.0699 84.6321 56.9792 84.8247 56.7979C85.0321 56.6025 85.1358 56.3444 85.1358 56.0234V54.1398H80.0233C78.4673 54.1398 77.3337 53.812 76.6224 53.1562C75.9258 52.4865 75.5775 51.4191 75.5775 49.9539V49.3262C75.5775 47.8611 75.9258 46.8007 76.6224 46.145C77.3337 45.4751 78.4673 45.1403 80.0233 45.1403H87.8256V48.0703H80.9124C80.0233 48.0703 79.5788 48.4889 79.5788 49.3262V49.7447C79.5788 50.5819 80.0233 51.0004 80.9124 51.0004H84.9136C86.3659 51.0004 87.4328 51.3213 88.1145 51.9632C88.7962 52.605 89.1371 53.6097 89.1371 54.977V56.0234C89.1371 57.3908 88.7962 58.3955 88.1145 59.0372C87.4328 59.6791 86.3659 60 84.9136 60C84.1578 60 83.3576 59.9861 82.5129 59.9582L80.4678 59.8745C78.9564 59.8047 77.3928 59.7071 75.7777 59.5814V56.756Z" fill="#010A43"/>
<path d="M100.25 45.1403H104.252V55.8142C104.252 57.2793 103.896 58.3467 103.185 59.0163C102.488 59.6721 101.362 60 99.8059 60H94.6932C93.1372 60 92.0036 59.6721 91.2923 59.0163C90.5958 58.3467 90.2476 57.2793 90.2476 55.8142V45.1403H94.2486V55.8142C94.2486 56.6514 94.6932 57.0699 95.5823 57.0699H98.9166C99.8059 57.0699 100.25 56.6514 100.25 55.8142V45.1403Z" fill="#010A43"/>
<path d="M106.032 45.1403H115.368C116.924 45.1403 118.05 45.4751 118.747 46.145C119.458 46.8007 119.814 47.8611 119.814 49.3262V51.2098C119.814 52.3678 119.606 53.2678 119.191 53.9096C118.791 54.5514 118.146 54.977 117.257 55.1863L120.036 59.7908H115.701L113.145 55.3957H110.033V59.7908H106.032V45.1403ZM115.812 49.3262C115.812 48.4889 115.368 48.0703 114.479 48.0703H110.033V52.4655H114.479C115.368 52.4655 115.812 52.0469 115.812 51.2098V49.3262Z" fill="#010A43"/>
<path d="M127.927 55.3957L131.706 45.1403H136.041L130.15 59.7908H125.705L119.814 45.1403H124.149L127.927 55.3957Z" fill="#010A43"/>
<path d="M149.488 59.7908H137.151V45.1403H149.488V48.0703H141.152V50.8958H147.71V53.8259H141.152V56.8607H149.488V59.7908Z" fill="#010A43"/>
<path d="M150.488 45.1403H154.712L158.38 52.2563L162.047 45.1403H166.271L160.38 55.9189V59.7908H156.379V55.9189L150.488 45.1403Z" fill="#010A43"/>
<path d="M112.01 40.0128C116.07 40.222 118.819 40.3268 120.256 40.3268C120.597 40.3268 120.864 40.2359 121.057 40.0546C121.264 39.8593 121.368 39.6012 121.368 39.2803V37.3965H116.255C114.699 37.3965 113.566 37.0687 112.854 36.4129C112.158 35.7432 111.81 34.6758 111.81 33.2108V32.5829C111.81 31.1178 112.158 30.0574 112.854 29.4017C113.566 28.732 114.699 28.397 116.255 28.397H124.058V31.3272H117.144C116.255 31.3272 115.811 31.7458 115.811 32.5829V33.0014C115.811 33.8387 116.255 34.2573 117.144 34.2573H121.146C122.598 34.2573 123.665 34.5782 124.346 35.22C125.028 35.8617 125.369 36.8664 125.369 38.2338V39.2803C125.369 40.6477 125.028 41.6522 124.346 42.2941C123.665 42.9359 122.598 43.2568 121.146 43.2568C120.39 43.2568 119.59 43.2429 118.745 43.2149L116.7 43.1312C115.188 43.0614 113.625 42.9638 112.01 42.8383V40.0128Z" fill="#010A43"/>
<path d="M102.474 28.397L105.141 37.8153L107.475 28.397H111.81L107.586 43.0475H103.363L100.696 33.9433L98.0281 43.0475H93.8047L89.5812 28.397H93.9158L96.2498 37.8153L98.9172 28.397H102.474Z" fill="#010A43"/>
<path d="M75.5775 28.397H84.9137C86.4696 28.397 87.5959 28.732 88.2924 29.4017C89.0036 30.0574 89.3593 31.1178 89.3593 32.5829V34.4665C89.3593 35.6247 89.1519 36.5246 88.7369 37.1665C88.3369 37.8083 87.6922 38.2338 86.8031 38.443L89.5816 43.0475H85.2471L82.6908 38.6524H79.5788V43.0475H75.5775V28.397ZM85.3582 32.5829C85.3582 31.7458 84.9137 31.3272 84.0244 31.3272H79.5788V35.7223H84.0244C84.9137 35.7223 85.3582 35.3037 85.3582 34.4665V32.5829Z" fill="#010A43"/>
<path d="M24.4515 59.7954C26.9069 59.7954 28.8973 57.9213 28.8973 55.6096C28.8973 53.2978 26.9069 51.4237 24.4515 51.4237C21.9964 51.4237 20.0059 53.2978 20.0059 55.6096C20.0059 57.9213 21.9964 59.7954 24.4515 59.7954Z" fill="#010A43"/>
<path d="M55.5481 59.7954C58.0034 59.7954 59.9939 57.9213 59.9939 55.6096C59.9939 53.2978 58.0034 51.4237 55.5481 51.4237C53.0927 51.4237 51.1023 53.2978 51.1023 55.6096C51.1023 57.9213 53.0927 59.7954 55.5481 59.7954Z" fill="#010A43"/>
<path d="M66.1525 32.29L66.7305 30.1343C66.7305 30.0506 66.7527 29.9668 66.7748 29.904C67.0416 29.0251 67.9085 28.3972 68.9088 28.3972L69.3534 28.439C70.3757 28.6275 71.1316 29.4855 71.1316 30.4902C71.1316 30.6367 71.1094 30.7832 71.0872 30.9087L70.5981 32.7923L67.5307 44.3243C67.4639 44.5965 67.375 44.8685 67.2639 45.1405C67.0859 45.643 66.8416 46.1033 66.5525 46.5429C65.8857 47.4846 64.952 48.238 63.8629 48.7194C63.6407 48.8033 63.4405 48.8868 63.196 48.9498C62.5069 49.201 61.7734 49.3264 60.9954 49.3264H19.4056C18.9611 49.3264 18.5165 49.2845 18.1163 49.201C17.7162 49.138 17.316 49.0125 16.9382 48.866C15.56 48.3637 14.4041 47.4218 13.6484 46.2081C13.5373 46.0196 13.426 45.8311 13.3372 45.643C13.1371 45.2453 12.9816 44.8266 12.8926 44.3871C12.826 44.1569 12.8037 43.9057 12.7815 43.6755L9.22494 20.2767C9.15818 20.0045 9.04707 19.7534 8.89145 19.5233C8.73583 19.3139 8.5136 19.1045 8.29124 18.9582L1.06693 15.5257C0.422344 15.1699 0 14.5001 0 13.7467C0 12.5956 1.0003 11.6538 2.22286 11.6538C2.53409 11.6538 2.82307 11.7165 3.0898 11.8211L11.9813 16.007L12.3591 16.1954C12.826 16.5095 13.1816 16.9698 13.2927 17.514L13.3372 17.786L13.715 20.2556L16.338 37.4805L16.916 41.3314C16.9382 41.499 16.9605 41.6663 16.9827 41.8128C17.0493 42.0639 17.1161 42.3151 17.2494 42.5662V42.5872C17.7829 43.7592 18.8721 44.6592 20.206 44.9942C20.5614 45.0988 20.9394 45.1405 21.3394 45.1405H59.2614C59.6172 45.1405 59.9505 45.0988 60.284 45.015C61.5511 44.743 62.618 43.9477 63.196 42.9012C63.3294 42.6918 63.4405 42.4616 63.5072 42.2105L66.1525 32.29Z" fill="#010A43"/>
<path d="M42.5248 29.6946L38.6792 44.094H58.396C58.8184 44.052 59.1962 43.9474 59.574 43.7799C60.7966 43.2776 61.7526 42.2522 62.086 40.9963C62.1971 40.6615 62.2417 40.3057 62.2417 39.9498V31.8711L42.5248 29.6946Z" fill="#FF2E63"/>
<path d="M62.2321 22.5366C61.8987 22.7249 61.5208 22.8295 61.1207 22.8295H44.3382L43.6046 25.5922L62.2321 27.6433V22.5366Z" fill="#FF2E63"/>
<path d="M19.5468 24.7642L19.9288 23.8066L19.0246 22.8633L39.1594 25.0902L39.7596 22.8298L18.8972 22.7306L18.8955 22.7288C18.4953 22.7288 18.1175 22.6241 17.7841 22.4359V22.7252H17.7753L17.7841 22.7261V26.9529V27.5427V39.9499C17.7841 40.3895 17.8508 40.8081 17.9842 41.1849L18.0063 41.2684C18.5399 42.7545 19.9402 43.8847 21.6295 44.094H34.1L38.0565 29.1924L18.1337 26.9915L19.5468 24.7642Z" fill="#FF2E63"/>
<path d="M63.3528 16.0917V20.2777C63.3528 21.052 62.9081 21.7427 62.2413 22.0775C61.9079 22.2659 61.5301 22.3705 61.1299 22.3705H18.8955C18.7399 22.3705 18.5842 22.3496 18.4508 22.3287C18.2064 22.2869 17.9841 22.2032 17.7841 22.0775C17.1172 21.7427 16.6726 21.052 16.6726 20.2777V16.0917C16.6726 15.3173 17.1172 14.6476 17.7841 14.2919C18.1175 14.1035 18.4953 13.9988 18.8955 13.9988H61.1299C61.5301 13.9988 61.9079 14.1035 62.2413 14.2919C62.9081 14.6476 63.3528 15.3173 63.3528 16.0917Z" fill="#FF2E63"/>
<path d="M62.2408 27.6436V31.8713L42.524 29.6738L38.6786 44.0941H34.0995L38.0784 29.1924L17.7836 26.9531V22.7252L39.1675 25.0902L39.7678 22.8298H44.3469L43.6133 25.5925L62.2408 27.6436Z" fill="#010A43"/>
<path d="M55.1548 3.23396C52.9319 0.0945693 48.2639 -0.951893 44.7073 1.14103C43.1514 1.97826 41.373 3.86181 40.0394 5.74551C38.7056 3.86181 36.9274 1.97826 35.3714 1.14103C31.8147 -0.951893 27.1467 -0.114663 24.9238 3.23396C22.7009 6.58272 23.5902 10.9778 27.1467 13.0708C27.3689 13.28 27.5912 13.28 27.8136 13.4893H52.265C52.4875 13.28 52.7097 13.28 52.9319 13.0708C56.2662 10.9778 57.3777 6.58272 55.1548 3.23396ZM38.261 10.9778C38.261 11.1871 38.261 11.1871 38.261 11.1871C38.0388 11.1871 38.0388 11.1871 38.0388 11.1871C37.8165 11.1871 37.5941 11.3964 37.3718 11.3964C36.705 11.6057 35.8159 11.6057 34.7045 11.3964C32.4816 11.1871 30.2587 10.5592 29.3696 9.93136C27.5912 8.88489 27.1467 7.0012 28.2581 5.32688C29.3696 3.65256 31.5925 3.23396 33.1485 4.28042C34.0376 4.90828 35.8159 6.37335 37.1496 8.04766C37.8165 8.88489 38.0388 9.72211 38.261 10.35V10.9778ZM50.9313 9.93136C49.8199 10.35 47.8193 11.1871 45.5964 11.3964C44.485 11.6057 43.5959 11.6057 42.929 11.3964C42.7068 11.3964 42.4844 11.1871 42.2621 11.1871C42.0399 11.1871 42.0399 11.1871 42.0399 11.1871V10.35C42.2621 9.72211 42.4844 8.88489 43.1514 8.04766C44.485 6.37335 46.041 4.90828 46.9302 4.28042C48.4861 3.23396 50.709 3.86181 51.8204 5.32688C52.9319 6.79197 52.4875 8.88489 50.9313 9.93136Z" fill="#010A43"/>
</svg>
